<svg width="85" height="21" viewBox="0 0 85 21" fill="none" xmlns="http://www.w3.org/2000/svg">
<g clip-path="url(#clip0_1_2)">
<path d="M14.0888 20.7252H10.7028L5.4098 12.9533H2.8022V20.7252H0V0H7.90064C12.2207 0 13.9721 3.25794 13.9721 6.47664C13.9721 9.53832 12.4542 12.5215 8.60119 12.8355L14.0888 20.7252ZM2.8022 2.62991V10.3626H7.70604C10.1969 10.3626 11.131 8.43925 11.131 6.51589C11.131 4.63178 10.1969 2.62991 7.8228 2.62991H2.8022V2.62991Z" fill="white"></path>
<path d="M28.0998 14.7196H16.8132C17.1245 17.0748 18.9148 18.5271 21.3278 18.5271C23.0014 18.5271 24.5192 17.7813 25.3365 16.3682C26.0371 16.6823 26.9322 16.957 27.6717 17.271C26.4652 19.7832 23.9744 21 21.25 21C17.2802 21 14.1277 18.0953 14.1277 13.6206C14.1277 9.1458 17.2802 6.35889 21.25 6.35889C25.2198 6.35889 28.1777 9.18505 28.1777 13.6206C28.1387 13.9738 28.1387 14.4056 28.0998 14.7196ZM25.4533 12.6C25.1419 10.2449 23.4684 8.83178 21.2111 8.83178C18.9148 8.83178 17.1245 10.2056 16.8132 12.6H25.4533Z" fill="white"></path>
<path d="M32.1864 20.7253H29.462V6.67296H32.1864V8.79259C33.0037 7.10474 35.0275 6.39819 36.5454 6.39819C40.0481 6.39819 41.9162 8.63558 41.9162 12.6393V20.7646H39.1919V12.7571C39.1919 10.4019 38.0243 9.0281 36.1173 9.0281C34.1324 9.0281 32.1864 10.1272 32.1864 13.1103V20.7253Z" fill="white"></path>
<path d="M57.2893 14.7196H46.0027C46.3141 17.0748 48.1043 18.5271 50.5173 18.5271C52.1909 18.5271 53.7087 17.7813 54.526 16.3682C55.2266 16.6823 56.1217 16.957 56.8612 17.271C55.6547 19.7832 53.1639 21 50.4395 21C46.4697 21 43.3173 18.0953 43.3173 13.6206C43.3173 9.1458 46.4697 6.35889 50.4395 6.35889C54.4093 6.35889 57.3672 9.18505 57.3672 13.6206C57.3672 13.9671 57.3672 14.4021 57.2893 14.7196ZM54.6428 12.6C54.3314 10.2449 52.6579 8.83178 50.4006 8.83178C48.1043 8.83178 46.3141 10.2056 46.0027 12.6H54.6428Z" fill="white"></path>
<path d="M62.6603 14.5234C60.1305 13.8169 58.6905 12.5608 58.924 9.97016C59.1575 7.92903 61.2592 6.39819 63.75 6.39819C66.0852 6.39819 68.3425 7.49726 68.576 10.3627H65.9684C65.8127 9.30287 64.8787 8.75333 63.7889 8.75333C62.7381 8.75333 61.9208 9.26361 61.6873 10.0094C61.5705 10.4412 61.5705 10.8337 61.7262 11.1085C61.9986 11.6973 62.6603 11.972 63.3608 12.2075L65.4235 12.7178C68.3036 13.4244 69.043 15.23 69.043 16.8001C69.043 19.43 66.5522 21.0001 63.6333 21.0001C61.1424 21.0001 58.5348 19.3907 58.457 16.486H60.9478C61.0257 17.0748 61.3759 17.7421 62.0765 18.0954C62.6992 18.4879 63.3997 18.6449 64.2949 18.5664C65.5792 18.4879 66.3965 17.7814 66.3965 16.7216C66.4355 15.6617 65.5792 15.1907 64.5673 14.9552L62.6603 14.5234Z" fill="white"></path>
<path d="M73.1685 20.7252H70.4831V6.67285H73.1685V20.7252Z" fill="white"></path>
<path d="M78.6172 14.5234C76.0875 13.8169 74.6475 12.5608 74.881 9.97016C75.1145 7.92903 77.2161 6.39819 79.707 6.39819C82.0422 6.39819 84.2995 7.49726 84.533 10.3627H81.9254C81.7697 9.30287 80.8356 8.75333 79.7459 8.75333C78.6951 8.75333 77.8778 9.26361 77.6443 10.0094C77.5275 10.4412 77.5275 10.8337 77.6832 11.1085C77.9556 11.6973 78.6172 11.972 79.3178 12.2075L81.3805 12.7178C84.2606 13.4244 85 15.23 85 16.8001C85 19.43 82.5092 21.0001 79.5902 21.0001C77.0994 21.0001 74.4918 19.3907 74.4139 16.486H76.9048C76.9826 17.0748 77.3329 17.7421 78.0334 18.0954C78.6562 18.4879 79.3567 18.6449 80.2519 18.5664C81.5362 18.4879 82.3535 17.7814 82.3535 16.7216C82.3924 15.6617 81.5362 15.1907 80.5243 14.9552L78.6172 14.5234Z" fill="white"></path>
<path d="M82.6607 0.0786133H71.5924C70.7003 0.0786133 69.9771 0.801846 69.9771 1.694C69.9771 2.58615 70.7003 3.30938 71.5924 3.30938H82.6607C83.5529 3.30938 84.2761 2.58615 84.2761 1.694C84.2761 0.801846 83.5529 0.0786133 82.6607 0.0786133Z" fill="url(#paint0_linear_1_2)"></path>
</g>
<defs>
<linearGradient id="paint0_linear_1_2" x1="69.9065" y1="1.61552" x2="84.2056" y2="1.61552" gradientUnits="userSpaceOnUse">
<stop stop-color="#3B82F6"/>
<stop offset="0.575595" stop-color="#8B5CF6"/>
<stop offset="1" stop-color="#EC4899"/>
</linearGradient>
<clipPath id="clip0_1_2">
<rect width="85" height="21" fill="white"/>
</clipPath>
</defs>
</svg>