<svg xmlns:xlink="http://www.w3.org/1999/xlink" xmlns="http://www.w3.org/2000/svg" style="width:100%;height:100%" viewBox="0 0 693 131" preserveAspectRatio="none" width="693" height="131"><defs><svg width="693" height="131" fill="none" id="svg1838364182_4411"><g clip-path="url(#svg1838364182_4411_a)" fill="none"><path d="M91.773 129.284H70.65L37.633 80.803H21.367v48.481H3.887V0H53.17c26.95 0 37.874 20.323 37.874 40.401 0 19.1-9.468 37.708-33.503 39.667l34.232 49.216ZM21.367 16.405v48.237h30.59c15.538 0 21.365-11.998 21.365-23.996 0-11.753-5.827-24.24-20.637-24.24H21.367Zm157.801 75.413h-70.406c1.942 14.691 13.11 23.751 28.162 23.751 10.44 0 19.908-4.652 25.006-13.467 4.37 1.959 9.954 3.673 14.567 5.632-7.526 15.67-23.064 23.261-40.059 23.261-24.763 0-44.428-18.119-44.428-46.033s19.665-45.298 44.428-45.298c24.764 0 43.215 17.63 43.215 45.298-.243 2.204-.243 4.897-.485 6.856Zm-16.509-13.222c-1.943-14.692-12.382-23.507-26.463-23.507-14.324 0-25.492 8.57-27.434 23.507h53.897Zm42.004 50.69h-16.995V41.627h16.995V54.85c5.098-10.528 17.722-14.936 27.191-14.936 21.85 0 33.503 13.957 33.503 38.932v50.685h-16.994V79.58c0-14.692-7.284-23.261-19.18-23.261-12.381 0-24.52 6.855-24.52 25.465v47.502Zm156.588-37.468h-70.405c1.942 14.691 13.11 23.751 28.162 23.751 10.439 0 19.908-4.652 25.006-13.467 4.37 1.959 9.954 3.673 14.567 5.632-7.526 15.67-23.064 23.261-40.059 23.261-24.763 0-44.428-18.119-44.428-46.033s19.665-45.298 44.428-45.298c24.764 0 43.215 17.63 43.215 45.298-.486 2.204-.486 4.897-.486 6.856Zm-16.509-13.222c-1.942-14.692-12.381-23.507-26.462-23.507-14.324 0-25.492 8.57-27.434 23.507h53.896Zm50.015 12.002c-15.78-4.408-24.763-12.243-23.307-28.404 1.457-12.732 14.567-22.282 30.105-22.282 14.567 0 28.648 6.856 30.105 24.73h-16.266c-.972-6.61-6.798-10.038-13.596-10.038-6.555 0-11.654 3.183-13.11 7.835-.729 2.693-.729 5.142.243 6.856 1.699 3.673 5.826 5.387 10.196 6.856l12.868 3.183c17.965 4.408 22.578 15.671 22.578 25.465 0 16.406-15.538 26.2-33.746 26.2-15.538 0-31.804-10.039-32.29-28.159h15.538c.486 3.673 2.671 7.836 7.041 10.04 3.884 2.448 8.254 3.428 13.838 2.938 8.012-.49 13.11-4.897 13.11-11.508.243-6.612-5.098-9.55-11.411-11.019l-11.896-2.693Zm65.549 38.687h-16.751V41.626h16.751v87.659ZM494.3 90.598c-15.78-4.408-24.763-12.243-23.307-28.404 1.457-12.732 14.567-22.282 30.105-22.282 14.567 0 28.648 6.856 30.105 24.73h-16.266c-.972-6.61-6.798-10.038-13.596-10.038-6.555 0-11.654 3.183-13.11 7.835-.729 2.693-.729 5.142.243 6.856 1.699 3.673 5.826 5.387 10.196 6.856l12.868 3.183c17.965 4.408 22.578 15.671 22.578 25.465 0 16.406-15.538 26.2-33.746 26.2-15.538 0-31.804-10.039-32.29-28.159h15.538c.486 3.673 2.671 7.836 7.041 10.04 3.884 2.448 8.254 3.428 13.838 2.938 8.012-.49 13.11-4.897 13.11-11.508.243-6.612-5.098-9.55-11.411-11.019L494.3 90.598Z" fill="#000000"></path><path d="M678 0h-83c-6.075 0-11 4.925-11 11s4.925 11 11 11h83c6.075 0 11-4.925 11-11s-4.925-11-11-11Z" fill="url(&quot;#svg1838364182_4411_b&quot;)"></path><path d="M688.621 132.573h-16.752V44.914h16.752v87.659Zm-138.78-4.821c2.159 2.225 4.822 3.337 7.989 3.337s5.83-1.112 7.99-3.337c2.159-2.225 3.239-4.87 3.239-7.936 0-3.115-1.08-5.76-3.239-7.936-2.16-2.225-4.823-3.337-7.99-3.337s-5.83 1.112-7.989 3.337c-2.16 2.176-3.239 4.821-3.239 7.936 0 3.066 1.079 5.711 3.239 7.936ZM613.385 131c-5.855 0-10.985-1.098-15.39-3.293-4.405-2.196-7.834-5.27-10.288-9.222-2.453-3.952-3.68-8.508-3.68-13.668v-.165c0-5.05 1.283-9.386 3.848-13.009 2.565-3.677 6.273-6.587 11.124-8.727 4.907-2.141 10.817-3.403 17.731-3.788l33.289-1.976v12.515l-30.863 1.894c-5.409.33-9.591 1.62-12.546 3.87-2.9 2.195-4.349 5.132-4.349 8.81v.164c0 3.788 1.449 6.779 4.349 8.975 2.955 2.196 6.858 3.294 11.709 3.294 4.238 0 8.03-.851 11.375-2.553 3.402-1.702 6.078-4.034 8.03-6.998 1.951-3.019 2.927-6.395 2.927-10.128V71.224c0-4.776-1.505-8.508-4.516-11.198-3.011-2.744-7.333-4.117-12.964-4.117-5.186 0-9.368 1.098-12.546 3.294-3.123 2.196-5.074 5.022-5.855 8.48l-.167.742H587.54l.084-.906c.446-4.995 2.147-9.469 5.102-13.42 2.955-4.008 7.053-7.164 12.295-9.47 5.241-2.305 11.458-3.458 18.651-3.458s13.411 1.18 18.652 3.54c5.241 2.361 9.312 5.682 12.211 9.964 2.9 4.281 4.349 9.303 4.349 15.067v59.694h-18.233v-13.668h-.334a28.787 28.787 0 0 1-6.692 8.151c-2.732 2.251-5.826 4.007-9.284 5.27-3.401 1.207-7.053 1.811-10.956 1.811Z" fill="#000000"></path></g><defs><linearGradient id="svg1838364182_4411_b" x1="583.482" y1="10.466" x2="688.482" y2="10.466" gradientUnits="userSpaceOnUse"><stop stop-color="#FA1C63"></stop><stop offset=".576" stop-color="#F2D003"></stop><stop offset="1" stop-color="#00C97D"></stop></linearGradient><clipPath id="svg1838364182_4411_a"><path fill="#fff" transform="translate(.143)" d="M0 0h692.429v131H0z"></path></clipPath><linearGradient id="svg1838364182_4411_b" x1="583.482" y1="10.466" x2="688.482" y2="10.466" gradientUnits="userSpaceOnUse"><stop stop-color="#FA1C63"></stop><stop offset=".576" stop-color="#F2D003"></stop><stop offset="1" stop-color="#00C97D"></stop></linearGradient></defs></svg></defs><use href="#svg1838364182_4411"></use></svg>